<svg width="215" height="60" viewBox="0 0 215 60" fill="none" xmlns="http://www.w3.org/2000/svg">
<g filter="url(#filter0_d_2_82)">
<path d="M66.22 31.84C65.8333 31.2133 65.3333 30.74 64.72 30.42C64.12 30.0867 63.36 29.92 62.44 29.92H62.42C61.4467 29.92 60.6933 30.08 60.16 30.4C59.6267 30.72 59.36 31.16 59.36 31.72C59.36 32.1067 59.5 32.46 59.78 32.78C60.0733 33.1 60.6333 33.36 61.46 33.56L64.44 34.26C65.0933 34.4067 65.6333 34.62 66.06 34.9C66.4867 35.18 66.82 35.5 67.06 35.86C67.3133 36.22 67.4867 36.6133 67.58 37.04C67.6867 37.4667 67.74 37.9 67.74 38.34C67.74 38.94 67.6133 39.48 67.36 39.96C67.1067 40.44 66.7467 40.8533 66.28 41.2C65.8267 41.5333 65.2733 41.7933 64.62 41.98C63.9667 42.1533 63.24 42.24 62.44 42.24H62.42C60.9667 42.24 59.74 41.9733 58.74 41.44C57.7533 40.9067 57.0267 40.1333 56.56 39.12L58.4 37.8C58.8133 38.68 59.36 39.3133 60.04 39.7C60.72 40.0733 61.5267 40.26 62.46 40.26H62.48C63.4667 40.26 64.2133 40.08 64.72 39.72C65.2267 39.36 65.48 38.88 65.48 38.28C65.48 37.7867 65.3267 37.3667 65.02 37.02C64.7267 36.6733 64.22 36.4067 63.5 36.22L60.24 35.4C59.0933 35.12 58.28 34.6533 57.8 34C57.3333 33.3467 57.1 32.6133 57.1 31.8C57.1 31.1733 57.2267 30.62 57.48 30.14C57.7333 29.66 58.0933 29.2533 58.56 28.92C59.0267 28.5867 59.5933 28.34 60.26 28.18C60.9267 28.0067 61.6733 27.92 62.5 27.92H62.52C63.7067 27.92 64.72 28.1267 65.56 28.54C66.4133 28.94 67.08 29.5 67.56 30.22L66.22 31.84ZM70.0409 28.16H72.2409L76.9609 36.36L81.6809 28.16H83.9009V42H81.7209V31.84L77.6609 39.14H76.2809L72.2009 31.84V42H70.0409V28.16ZM91.7127 28.16H94.1127L99.9527 42H97.5927L96.2727 38.76H89.5527L88.2327 42H85.8727L91.7127 28.16ZM95.5327 36.78L92.9127 30.48L90.2927 36.78H95.5327ZM113.135 42H110.635L107.555 37.32H107.435H104.155V42H101.935V28.16H107.435C109.182 28.16 110.509 28.5733 111.415 29.4C112.335 30.2267 112.795 31.36 112.795 32.8V32.82C112.795 33.8733 112.529 34.76 111.995 35.48C111.475 36.2 110.702 36.7133 109.675 37.02L113.135 42ZM104.155 30.18V35.38H107.435C108.435 35.38 109.209 35.1667 109.755 34.74C110.302 34.3133 110.575 33.6733 110.575 32.82V32.8C110.575 31.9333 110.302 31.28 109.755 30.84C109.209 30.4 108.435 30.18 107.435 30.18H104.155ZM124.981 28.16V30.3H120.581V42H118.341V30.3H113.941V28.16H124.981ZM125.647 35.08V35.06C125.647 34.0067 125.807 33.0467 126.127 32.18C126.461 31.3 126.934 30.5467 127.547 29.92C128.161 29.28 128.901 28.7867 129.767 28.44C130.647 28.0933 131.627 27.92 132.707 27.92H132.727C133.607 27.92 134.441 28.0467 135.227 28.3C136.027 28.54 136.754 28.94 137.407 29.5L136.187 31.18C135.707 30.78 135.174 30.4867 134.587 30.3C134.001 30.1 133.381 30 132.727 30H132.707C131.974 30 131.307 30.1267 130.707 30.38C130.107 30.6333 129.594 30.9867 129.167 31.44C128.754 31.88 128.434 32.4133 128.207 33.04C127.981 33.6533 127.867 34.3267 127.867 35.06V35.08C127.867 35.8133 127.981 36.4933 128.207 37.12C128.447 37.7467 128.774 38.2867 129.187 38.74C129.614 39.18 130.121 39.5267 130.707 39.78C131.307 40.0333 131.974 40.16 132.707 40.16H132.727C133.434 40.16 134.067 40.06 134.627 39.86C135.201 39.66 135.721 39.3667 136.187 38.98L137.407 40.66C136.781 41.2067 136.074 41.6067 135.287 41.86C134.514 42.1133 133.661 42.24 132.727 42.24H132.707C131.627 42.24 130.647 42.0667 129.767 41.72C128.901 41.3733 128.161 40.8867 127.547 40.26C126.934 39.62 126.461 38.86 126.127 37.98C125.807 37.1 125.647 36.1333 125.647 35.08ZM143.9 28.16H146.3L152.14 42H149.78L148.46 38.76H141.74L140.42 42H138.06L143.9 28.16ZM147.72 36.78L145.1 30.48L142.48 36.78H147.72ZM162.763 31.84C162.376 31.2133 161.876 30.74 161.263 30.42C160.663 30.0867 159.903 29.92 158.983 29.92H158.963C157.99 29.92 157.236 30.08 156.703 30.4C156.17 30.72 155.903 31.16 155.903 31.72C155.903 32.1067 156.043 32.46 156.323 32.78C156.616 33.1 157.176 33.36 158.003 33.56L160.983 34.26C161.636 34.4067 162.176 34.62 162.603 34.9C163.03 35.18 163.363 35.5 163.603 35.86C163.856 36.22 164.03 36.6133 164.123 37.04C164.23 37.4667 164.283 37.9 164.283 38.34C164.283 38.94 164.156 39.48 163.903 39.96C163.65 40.44 163.29 40.8533 162.823 41.2C162.37 41.5333 161.816 41.7933 161.163 41.98C160.51 42.1533 159.783 42.24 158.983 42.24H158.963C157.51 42.24 156.283 41.9733 155.283 41.44C154.296 40.9067 153.57 40.1333 153.103 39.12L154.943 37.8C155.356 38.68 155.903 39.3133 156.583 39.7C157.263 40.0733 158.07 40.26 159.003 40.26H159.023C160.01 40.26 160.756 40.08 161.263 39.72C161.77 39.36 162.023 38.88 162.023 38.28C162.023 37.7867 161.87 37.3667 161.563 37.02C161.27 36.6733 160.763 36.4067 160.043 36.22L156.783 35.4C155.636 35.12 154.823 34.6533 154.343 34C153.876 33.3467 153.643 32.6133 153.643 31.8C153.643 31.1733 153.77 30.62 154.023 30.14C154.276 29.66 154.636 29.2533 155.103 28.92C155.57 28.5867 156.136 28.34 156.803 28.18C157.47 28.0067 158.216 27.92 159.043 27.92H159.063C160.25 27.92 161.263 28.1267 162.103 28.54C162.956 28.94 163.623 29.5 164.103 30.22L162.763 31.84ZM176.446 28.16V30.3H172.046V42H169.806V30.3H165.406V28.16H176.446ZM180.738 28.16V39.86H188.338V42H178.518V28.16H180.738ZM199.613 28.16V30.24H192.613V34.06H198.893V36.16H192.613V39.92H199.613V42H190.393V28.16H199.613Z" fill="white"/>
<path d="M38.0271 21.8777V16.241C38.0271 16.1246 38.2335 16.1473 38.3204 16.1633C38.8215 16.2555 40.0156 16.8301 40.4982 17.0902C41.1175 17.4241 41.7142 17.8329 42.2262 18.3102L42.2415 24.3931C42.4377 24.8622 43.1242 25.2376 43.1856 25.7401C43.3829 27.3466 43.1198 29.5454 43.1078 31.198C43.0868 34.1062 43.1315 37.0151 43.1104 39.9236C43.1442 40.1322 43.4189 40.1223 43.5973 40.2284C45.2403 41.205 45.5514 43.3275 43.9342 44.4837C41.1469 46.477 37.9384 42.1948 41.2458 40.2284C41.4242 40.1223 41.6986 40.1322 41.7327 39.9236L41.6938 28.1185C40.4394 26.9385 38.7165 26.2465 37.0663 25.7582C35.0403 25.1592 32.8846 24.8455 30.7641 24.8554V32.4067C31.3699 32.752 31.9009 33.0253 32.2486 33.652C33.5896 36.0683 30.5759 38.5612 28.3664 36.8036C26.7282 35.5005 27.3638 32.9266 29.3839 32.4422V24.8554C27.2319 24.8505 24.9962 25.1511 22.9368 25.7586C21.7332 26.1135 20.3774 26.6621 19.338 27.3502C18.9783 27.5883 18.31 28.0088 18.2671 28.4318L18.2707 39.9236C18.3045 40.1322 18.5792 40.1223 18.7577 40.2284C20.3763 41.1908 20.7153 43.2849 19.1371 44.4542C16.365 46.5082 13.0341 42.2256 16.4526 40.2029C16.6125 40.1081 16.8694 40.1315 16.8927 39.9236L16.8887 25.6681L17.477 24.6826L17.4847 18.6985C18.6952 17.9586 19.9206 17.2318 21.2488 16.702C21.445 18.4799 21.2074 20.3042 21.3952 22.0903L23.0687 21.5477C23.1472 20.8695 22.9186 16.2392 23.1552 16.0096C23.2566 15.9113 24.3672 15.6693 24.6037 15.6161C25.9916 15.3034 27.4499 15.1058 28.8759 15.0713V20.6726H30.2921L30.4011 20.5661V15C32.455 15.0248 34.5479 15.1441 36.5426 15.6342L36.584 21.4079L38.0275 21.8777H38.0271ZM31.1733 34.872C31.1733 34.24 30.6486 33.7276 30.001 33.7276C29.3534 33.7276 28.8286 34.24 28.8286 34.872C28.8286 35.504 29.3534 36.0165 30.001 36.0165C30.6486 36.0165 31.1733 35.504 31.1733 34.872ZM18.7533 42.4588C18.7533 41.8268 18.2286 41.3143 17.581 41.3143C16.9334 41.3143 16.4086 41.8268 16.4086 42.4588C16.4086 43.0908 16.9334 43.6032 17.581 43.6032C18.2286 43.6032 18.7533 43.0908 18.7533 42.4588ZM43.5933 42.4588C43.5933 41.8268 43.0686 41.3143 42.421 41.3143C41.7734 41.3143 41.2487 41.8268 41.2487 42.4588C41.2487 43.0908 41.7734 43.6032 42.421 43.6032C43.0686 43.6032 43.5933 43.0908 43.5933 42.4588Z" fill="white"/>
</g>
<defs>
<filter id="filter0_d_2_82" x="0.000839233" y="0" width="214.612" height="60.0002" filterUnits="userSpaceOnUse" color-interpolation-filters="sRGB">
<feFlood flood-opacity="0" result="BackgroundImageFix"/>
<feColorMatrix in="SourceAlpha" type="matrix" values="0 0 0 0 0 0 0 0 0 0 0 0 0 0 0 0 0 0 127 0" result="hardAlpha"/>
<feOffset/>
<feGaussianBlur stdDeviation="7.5"/>
<feComposite in2="hardAlpha" operator="out"/>
<feColorMatrix type="matrix" values="0 0 0 0 0.164706 0 0 0 0 0.168627 0 0 0 0 0.164706 0 0 0 1 0"/>
<feBlend mode="normal" in2="BackgroundImageFix" result="effect1_dropShadow_2_82"/>
<feBlend mode="normal" in="SourceGraphic" in2="effect1_dropShadow_2_82" result="shape"/>
</filter>
</defs>
</svg>
