<svg width="549" height="636" viewBox="0 0 549 636" fill="none" xmlns="http://www.w3.org/2000/svg">
<path d="M277.548 42.8206L277.541 42.8136C276.445 41.7179 275.895 40.3699 275.895 38.8C275.895 37.2655 276.449 35.9549 277.548 34.8996L277.548 42.8206ZM277.548 42.8206L277.556 42.8274C278.705 43.8882 280.194 44.4 281.975 44.4C283.755 44.4 285.229 43.8883 286.341 42.8207L286.341 42.8204M277.548 42.8206L286.341 42.8204M286.341 42.8204C287.479 41.7264 288.055 40.3763 288.055 38.8C288.055 37.262 287.478 35.9517 286.341 34.8994M286.341 42.8204L286.341 34.8994M286.341 34.8994C285.231 33.7931 283.757 33.26 281.975 33.26C280.188 33.26 278.697 33.7953 277.548 34.8995C277.548 34.8994 277.548 34.8994 277.548 34.8993L286.341 34.8994ZM259.557 39.2971L259.982 39.5332L260.23 39.1148L263.89 32.9348L264.153 32.4909L263.701 32.242L246.737 22.9L263.701 13.558L264.155 13.3081L263.889 12.8634L260.229 6.74337L259.981 6.32865L259.558 6.56238L236.758 19.1624L236.5 19.305V19.6V26.2V26.4943L236.757 26.6371L259.557 39.2971ZM286.915 30.76V28.44H287.255C288.483 28.44 289.818 28.1862 291.257 27.693C292.716 27.1927 294.087 26.4229 295.369 25.3892C296.667 24.342 297.729 23.0065 298.557 21.3926C299.443 19.7464 299.875 17.8028 299.875 15.58V15.52C299.875 12.9083 299.447 10.6527 298.569 8.77072C297.696 6.86026 296.446 5.29452 294.819 4.08309C293.24 2.83762 291.357 1.9311 289.182 1.35658C287.014 0.783759 284.61 0.5 281.975 0.5H281.915C278.679 0.5 275.867 0.86371 273.486 1.60246L273.484 1.60321C271.161 2.33688 269.018 3.35692 267.057 4.66398L266.645 4.93868L266.916 5.35335L271.656 12.6133L271.928 13.0303L272.346 12.7598C273.669 11.9037 275.069 11.2431 276.545 10.7768C278.006 10.3155 279.713 10.08 281.675 10.08H281.735C282.825 10.08 283.873 10.1773 284.88 10.371L284.884 10.3716C285.915 10.5627 286.797 10.8844 287.537 11.3287L287.55 11.3362L287.563 11.3429C288.329 11.7444 288.922 12.2855 289.352 12.967L289.357 12.9748L289.362 12.9823C289.814 13.6427 290.055 14.4787 290.055 15.52V15.58C290.055 16.709 289.713 17.6003 289.052 18.2956L289.052 18.2961C288.386 18.9988 287.548 19.5607 286.526 19.977C285.489 20.3995 284.371 20.6892 283.171 20.8441C281.947 21.002 280.849 21.08 279.875 21.08H277.715H277.215V21.58V30.76V31.26H277.715H286.415H286.915V30.76ZM307.611 39.1117L307.857 39.5349L308.286 39.2971L331.086 26.6371L331.343 26.4943V26.2V19.6V19.305L331.085 19.1624L308.285 6.56238L307.859 6.32695L307.612 6.74649L304.012 12.8665L303.751 13.3099L304.202 13.558L321.166 22.9L304.202 32.242L303.753 32.4891L304.011 32.9317L307.611 39.1117Z" stroke="#3D6DE7" stroke-opacity="0.5"/>
<path d="M392.657 507.265L393.083 507.501L393.33 507.083L397.327 500.335L397.59 499.891L397.138 499.642L378.538 489.402L397.138 479.161L397.592 478.911L397.326 478.466L393.329 471.784L393.081 471.369L392.658 471.603L367.758 485.361L367.5 485.504V485.799V493.005V493.299L367.757 493.442L392.657 507.265ZM398.645 515.786L398.308 516.5H399.098H406.83H407.146L407.282 516.214L432.378 463.214L432.716 462.5H431.926H424.129H423.812L423.677 462.786L398.645 515.786ZM437.668 507.08L437.914 507.503L438.343 507.265L463.243 493.442L463.5 493.299V493.005V485.799V485.504L463.242 485.361L438.342 471.603L437.916 471.368L437.669 471.787L433.737 478.47L433.476 478.913L433.927 479.161L452.527 489.402L433.927 499.642L433.478 499.889L433.736 500.332L437.668 507.08Z" stroke="#3D6DE7" stroke-opacity="0.5"/>
<path d="M160.622 604.829C160.713 608.25 160.791 611.641 160.582 614.926C159.55 631.07 142.115 640.821 127.769 632.414C114.467 624.62 114.002 605.227 127.026 597.082L127.561 596.747L127.112 596.302C126.492 595.69 125.825 595.131 125.175 594.588C125.06 594.491 124.944 594.394 124.83 594.298C124.067 593.657 123.34 593.021 122.702 592.294L122.702 592.294C114.309 582.746 116.299 567.849 127.03 561.05L127.613 560.68L127.081 560.242L124.242 557.902C110.95 545.7 118.662 523.149 136.552 521.5H178.325C193.51 523.398 202.311 539.599 194.556 553.005L194.556 553.005C192.997 555.701 190.606 558.346 187.888 559.858L187.261 560.206L187.805 560.674C187.906 560.76 188.006 560.846 188.106 560.932C190.469 562.96 192.647 564.829 194.253 567.444C199.946 576.724 197.611 586.613 191.434 592.948C185.259 599.281 175.27 602.033 165.649 597.02L161.356 594.223L160.624 593.747L160.583 594.619C160.433 597.808 160.521 601.078 160.608 604.326C160.613 604.494 160.617 604.662 160.622 604.829ZM154.306 527.96V527.46H153.806H138.009C132.051 527.46 127.385 531.243 125.148 536.134C122.912 541.025 123.069 547.098 126.828 551.731L126.828 551.731C127.782 552.906 129.444 554.317 131.236 555.433C133.013 556.54 135.016 557.42 136.645 557.42H153.806H154.306V556.92V527.96ZM160.578 556.925H161.078V557.422H178.239C179.868 557.422 181.871 556.542 183.648 555.435C185.44 554.318 187.103 552.908 188.057 551.733L188.057 551.733C191.812 547.104 191.968 541.032 189.732 536.14C187.495 531.247 182.831 527.462 176.875 527.462H161.078H160.578V527.962V556.422V556.922V556.925ZM154.306 564.107V563.607H153.806H136.417C136.117 563.607 135.708 563.703 135.299 563.824C134.873 563.949 134.388 564.119 133.908 564.303C132.954 564.667 131.987 565.096 131.517 565.347L131.517 565.347C121.013 570.966 121.035 586.003 131.517 591.608L131.517 591.608C131.987 591.859 132.953 592.288 133.907 592.652C134.387 592.835 134.872 593.006 135.298 593.131C135.708 593.252 136.116 593.347 136.417 593.347H153.806H154.306V592.847V564.11V564.107ZM154.306 600.028V599.528H153.806H136.645C134.578 599.528 132.242 600.66 130.238 602.137C128.223 603.621 126.449 605.523 125.52 607.189L125.52 607.19C121.622 614.183 123.884 621.318 128.762 625.554C133.635 629.788 141.157 631.164 147.796 626.671C149.189 625.729 150.804 623.994 152.069 622.099C153.325 620.218 154.306 618.074 154.306 616.305V600.028ZM191.17 578.475C191.17 570.129 184.322 563.373 175.887 563.373C167.452 563.373 160.603 570.129 160.603 578.475C160.603 586.822 167.452 593.577 175.887 593.577C184.322 593.577 191.17 586.822 191.17 578.475Z" stroke="#3D6DE7" stroke-opacity="0.5"/>
<path d="M10.0351 378.974C15.21 381.244 22.2363 382.366 29.2488 382.435C36.263 382.503 43.3242 381.519 48.576 379.529L48.3989 379.061L48.5761 379.529C49.5986 379.142 51.4212 378.347 52.9977 377.318C53.7852 376.804 54.5322 376.218 55.0876 375.579C55.6388 374.946 56.0444 374.209 56.0444 373.403V367.556V367.027L55.5156 367.057C55.0011 367.087 54.5585 367.322 54.2002 367.547C54.0725 367.627 53.9422 367.715 53.8209 367.797C53.7725 367.83 53.7255 367.861 53.6807 367.891C53.5156 368.001 53.3665 368.096 53.2219 368.17L53.2214 368.171C47.1853 371.291 38.6122 372.87 29.9993 372.87C21.3864 372.87 12.8134 371.291 6.7773 368.171L6.77725 368.171C6.63308 368.096 6.48423 368.002 6.31927 367.891C6.2752 367.862 6.22908 367.831 6.18159 367.799C6.05963 367.716 5.92861 367.628 5.7999 367.547C5.44122 367.322 4.99827 367.087 4.48295 367.057L3.95423 367.027V367.556V373.403C3.95423 374.105 4.27756 374.757 4.71976 375.325C5.16488 375.896 5.7643 376.427 6.39861 376.896C7.66788 377.836 9.14946 378.586 10.0351 378.974ZM10.0351 378.974L10.236 378.516L10.0352 378.974C10.0352 378.974 10.0351 378.974 10.0351 378.974ZM56.8407 342.675L56.8408 342.675C58.236 344.059 59.0623 345.758 59.2341 347.729C58.9467 353.69 59.1188 359.827 59.2902 365.939C59.2986 366.241 59.3071 366.543 59.3155 366.844C59.4946 373.275 59.6479 379.669 59.2476 385.84L59.2476 385.84C58.9477 390.479 55.7033 392.833 51.594 394.678L51.7988 395.134L51.594 394.678C45.9515 397.212 38.0315 398.493 30.0722 398.5C22.1131 398.507 14.186 397.241 8.53021 394.738C4.6525 393.022 0.958773 390.451 0.752678 386.065C1.05034 380.098 0.878413 373.956 0.707213 367.839C0.699656 367.569 0.6921 367.3 0.684586 367.03C0.506397 360.63 0.351674 354.267 0.751055 348.124L0.751063 348.124C1.02602 343.879 4.48236 341.007 8.96793 339.076C13.4289 337.156 18.7317 336.249 22.3357 335.851L22.3358 335.851C26.9987 335.335 33.9062 335.313 40.5257 336.297C47.1718 337.284 53.4069 339.269 56.8407 342.675ZM54.7406 345.22C54.066 344.498 53.1102 343.802 51.9131 343.126C45.9041 339.729 38.3279 339.171 31.7213 338.684L31.6615 338.679L31.639 338.678L31.6164 338.678L27.8516 338.742L27.8548 339.119L27.8328 338.742C21.7945 339.096 15.2756 339.733 9.64214 342.339L9.64207 342.339C8.34619 342.939 7.17887 343.594 6.25682 344.304C5.34087 345.01 4.62524 345.802 4.29852 346.69C3.96044 347.608 4.06058 348.57 4.66391 349.526C5.25217 350.459 6.31203 351.379 7.88382 352.301L7.88392 352.301C13.0379 355.323 21.5938 356.806 30.0709 356.799C38.5474 356.792 47.0966 355.296 52.2346 352.228L51.9783 351.799L52.2346 352.228C53.4695 351.491 54.4023 350.746 55.0178 349.981C55.6379 349.211 55.9521 348.4 55.8935 347.558C55.8354 346.723 55.416 345.944 54.7406 345.22ZM6.1513 363.877C7.29332 364.797 8.63154 365.549 9.45094 365.933C14.7375 368.41 22.7042 369.658 30.5967 369.608C38.4862 369.558 46.408 368.211 51.5914 365.411L51.5916 365.411C52.2903 365.033 53.3728 364.327 54.2881 363.492C54.746 363.075 55.1761 362.612 55.495 362.13C55.8105 361.653 56.0444 361.115 56.0444 360.557V355.032V354.713V354.711H55.5444H55.5435L55.3346 354.259C54.615 354.591 53.9108 354.956 53.2184 355.314C53.0115 355.421 52.8056 355.527 52.6007 355.632C51.7033 356.092 50.814 356.527 49.8847 356.881L49.8845 356.881C44.3365 358.995 37.1786 360.06 29.9986 360.06C22.8186 360.06 15.6612 358.995 10.1142 356.881L10.114 356.881C9.18468 356.527 8.29591 356.092 7.39872 355.632C7.19597 355.528 6.99225 355.423 6.78748 355.317C6.09309 354.958 5.38651 354.592 4.66383 354.259L3.95423 353.931V354.713V360.559C3.95423 361.207 4.24645 361.82 4.64237 362.359C5.04193 362.904 5.58031 363.418 6.1513 363.877ZM5.6285 389.157C6.52641 389.997 7.61517 390.675 8.40921 391.1C13.5218 393.836 21.5194 395.162 29.4778 395.209C37.4391 395.257 45.4764 394.026 50.6798 391.558C51.5725 391.135 52.8828 390.4 53.9787 389.478C55.046 388.58 56.0444 387.392 56.0444 386.053V380.492V380.208V380.206H55.5444H55.5433L55.2882 379.779C46.3231 385.127 34.4141 386.326 24.0377 385.458C17.3108 384.896 10.4411 383.284 4.71511 379.782L3.95423 379.316V380.208V386.055C3.95423 387.263 4.74847 388.333 5.6285 389.157Z" stroke="#3D6DE7" stroke-opacity="0.5"/>
<path d="M525.648 93.9857L525.648 93.9856C525.277 88.9621 521.08 84.34 516.066 83.6692L515.819 83.6427C513.726 83.4184 511.429 83.5015 509.08 83.6017C508.964 83.6066 508.848 83.6116 508.732 83.6166C506.523 83.7115 504.275 83.8081 502.182 83.6471C500.023 83.825 497.578 85.1436 495.657 87.0281C493.722 88.9259 492.414 91.303 492.414 93.491V100.691H509.572C509.666 100.691 509.742 100.718 509.763 100.725L509.764 100.725C509.798 100.737 509.83 100.751 509.856 100.762C509.91 100.787 509.97 100.818 510.03 100.85C510.151 100.916 510.298 101.003 510.443 101.094C510.588 101.185 510.737 101.283 510.862 101.372C510.965 101.445 511.11 101.552 511.195 101.654L525.648 93.9857ZM525.648 93.9857C525.921 97.6726 525.815 101.53 525.692 105.426C525.687 105.587 525.682 105.748 525.677 105.909C525.559 109.623 525.441 113.366 525.645 116.977C525.473 118.7 524.303 119.879 522.591 120.138C518.364 120.345 514.009 120.222 509.632 120.098C509.426 120.092 509.22 120.087 509.014 120.081C504.428 119.952 499.826 119.84 495.375 120.13L495.375 120.13M525.648 93.9857L495.375 120.13M495.375 120.13C493.407 120.258 491.267 121.215 489.619 122.64M495.375 120.13L489.619 122.64M509.603 106.322L509.538 106.322L479.885 106.36C474.606 106.856 470.138 111.246 469.703 116.557L469.205 116.516L469.703 116.557C469.424 119.958 469.443 125.818 469.696 129.24L509.603 106.322ZM509.603 106.322L509.666 106.306M509.603 106.322L509.666 106.306M509.666 106.306C511.7 105.765 512.597 103.342 511.196 101.655L509.666 106.306ZM489.619 122.64C487.972 124.064 486.749 126.019 486.749 128.182M489.619 122.64L486.749 128.182M486.749 128.182V139.584M486.749 128.182V139.584M486.749 139.584H479.549C477.152 139.584 474.78 138.212 472.941 136.187C471.103 134.164 469.868 131.563 469.696 129.241L486.749 139.584ZM508.65 139.593L508.595 139.593L508.542 139.605C506.482 140.063 505.356 142.555 506.875 144.291C506.926 144.349 506.992 144.401 507.029 144.43C507.077 144.467 507.135 144.509 507.196 144.551C507.319 144.636 507.468 144.735 507.614 144.828C507.76 144.921 507.908 145.011 508.026 145.079C508.084 145.113 508.14 145.144 508.188 145.168C508.211 145.18 508.24 145.194 508.269 145.206C508.284 145.212 508.306 145.221 508.331 145.228C508.348 145.233 508.408 145.251 508.484 145.251H525.642V152.451C525.642 154.856 524.272 157.228 522.249 159.065C520.227 160.9 517.627 162.132 515.299 162.304C511.876 162.557 506.018 162.576 502.616 162.297C497.421 161.871 492.91 157.421 492.434 152.231C492.093 148.509 492.207 144.54 492.351 140.525C492.36 140.269 492.369 140.013 492.378 139.757C492.513 136.027 492.649 132.268 492.433 128.694C492.742 127.138 493.772 126.115 495.335 125.814C499.622 125.593 504.039 125.717 508.478 125.842C508.643 125.847 508.808 125.851 508.973 125.856C513.581 125.985 518.206 126.101 522.682 125.809C524.654 125.681 526.794 124.727 528.442 123.302C530.088 121.879 531.309 119.924 531.309 117.757V106.355H538.509C540.758 106.355 543.098 107.663 544.961 109.595C546.821 111.523 548.123 113.992 548.357 116.176C548.582 118.269 548.499 120.565 548.398 122.915C548.393 123.031 548.388 123.147 548.383 123.263C548.289 125.465 548.192 127.706 548.352 129.794C547.51 135.033 543.354 139.134 538.027 139.589L508.65 139.593ZM506.42 92.63C506.42 91.0648 505.151 89.7956 503.586 89.7956C502.021 89.7956 500.752 91.0648 500.752 92.63C500.752 94.1952 502.021 95.4644 503.586 95.4644C505.151 95.4644 506.42 94.1952 506.42 92.63ZM517.309 153.307C517.309 151.742 516.04 150.473 514.475 150.473C512.91 150.473 511.641 151.742 511.641 153.307C511.641 154.873 512.91 156.142 514.475 156.142C516.04 156.142 517.309 154.873 517.309 153.307Z" stroke="#3D6DE7" stroke-opacity="0.5"/>
</svg>
